Coordinates
version=1
nRows=27
nColumns=38
inDegrees=no

Units are S.I. units (second, meters, Newtons, ...)
If the header above contains a line with 'inDegrees', this indicates whether rotational values are in degrees (yes) or radians (no).

endheader
time	pelvis_tilt	pelvis_list	pelvis_rotation	pelvis_tx	pelvis_ty	pelvis_tz	hip_flexion_r	hip_adduction_r	hip_rotation_r	knee_angle_r	ankle_angle_r	subtalar_angle_r	mtp_angle_r	hip_flexion_l	hip_adduction_l	hip_rotation_l	knee_angle_l	ankle_angle_l	subtalar_angle_l	mtp_angle_l	lumbar_extension	lumbar_bending	lumbar_rotation	arm_flex_r	arm_add_r	arm_rot_r	elbow_flex_r	pro_sup_r	wrist_flex_r	wrist_dev_r	arm_flex_l	arm_add_l	arm_rot_l	elbow_flex_l	pro_sup_l	wrist_flex_l	wrist_dev_l
0.65	-0.204642	-0.0236043	-0.137324	1.12946	0.991579	-0.353195	0.598005	0.146904	0.156594	-0.0349648	0.253464	-0.0357565	-0.0276456	-0.16361	0.182224	0.130418	-0.94032	-0.358151	-0.0730814	-0.0679285	-0.105282	0.136446	-0.0885084	-0.921406	-0.225385	-0.191583	2.33485	1.767	-0.00115532	0.0049211	-0.271993	-0.354104	0.215675	2.35863	1.59659	0.0221798	0.0340483
0.66	-0.198816	-0.0240791	-0.1369	1.12847	0.985676	-0.35235	0.633522	0.147258	0.132746	-0.160634	0.230321	-0.0357565	-0.0276456	-0.132553	0.151733	0.0548039	-1.06395	-0.352356	-0.0730814	-0.0679285	-0.114086	0.13532	-0.0782662	-0.873697	-0.247882	-0.175229	2.3073	1.75367	-0.00115532	0.0049211	-0.295343	-0.343896	0.204875	2.30362	1.60502	0.0221798	0.0340483
0.67	-0.192802	-0.0260551	-0.136946	1.12712	0.978865	-0.35172	0.666659	0.150651	0.111803	-0.287907	0.214557	-0.0357565	-0.0276456	-0.098707	0.123621	-0.00846889	-1.18304	-0.341582	-0.0730814	-0.0679285	-0.124271	0.135641	-0.0656887	-0.822418	-0.269782	-0.157541	2.27662	1.73783	-0.00115532	0.0049211	-0.316638	-0.332381	0.191662	2.24565	1.61518	0.0221798	0.0340483
0.68	-0.186583	-0.0295446	-0.137424	1.12549	0.971391	-0.35121	0.696948	0.15705	0.0939637	-0.415837	0.206355	-0.0357565	-0.0276456	-0.0620588	0.0980568	-0.0592453	-1.29753	-0.325856	-0.0730814	-0.0679285	-0.135856	0.137422	-0.050782	-0.76764	-0.290987	-0.138611	2.24294	1.71967	-0.00115532	0.0049211	-0.335884	-0.319612	0.176101	2.18485	1.62701	0.0221798	0.0340483
0.69	-0.180055	-0.0345622	-0.138215	1.12365	0.963657	-0.350775	0.723111	0.166334	0.079693	-0.541803	0.20618	-0.0357565	-0.0276456	-0.0225467	0.075475	-0.0971926	-1.40721	-0.305321	-0.0730814	-0.0679285	-0.148808	0.140681	-0.0335966	-0.709618	-0.311208	-0.118735	2.20669	1.69978	-0.00115532	0.0049211	-0.353145	-0.305772	0.158391	2.12165	1.64025	0.0221798	0.0340483
0.7	-0.173154	-0.0410609	-0.139055	1.12169	0.956118	-0.350421	0.743219	0.178181	0.0695032	-0.661799	0.214732	-0.0357565	-0.0276456	0.0199467	0.0565468	-0.121993	-1.51159	-0.280347	-0.0730814	-0.0679285	-0.162997	0.145356	-0.0142968	-0.64894	-0.329904	-0.0985088	2.16878	1.67923	-0.00115532	0.0049211	-0.368632	-0.291242	0.138936	2.05699	1.65437	0.0221798	0.0340483
0.71	-0.165916	-0.048747	-0.139507	1.11965	0.949106	-0.350187	0.755342	0.191886	0.0635895	-0.771595	0.23265	-0.0357565	-0.0276456	0.065583	0.0420338	-0.133655	-1.60981	-0.251601	-0.0730814	-0.0679285	-0.178083	0.15117	0.00675264	-0.586653	-0.346275	-0.0788709	2.13077	1.65955	-0.00115532	0.0049211	-0.382801	-0.276651	0.118365	1.99245	1.66854	0.0221798	0.0340483
0.72	-0.15857	-0.0570109	-0.139019	1.11755	0.942781	-0.350128	0.758058	0.206313	0.0616885	-0.867457	0.259928	-0.0357565	-0.0276456	0.114624	0.0324993	-0.132888	-1.70063	-0.220029	-0.0730814	-0.0679285	-0.193366	0.157564	0.0290025	-0.524311	-0.359343	-0.0610663	2.09483	1.64232	-0.00115532	0.0049211	-0.396404	-0.262862	0.0975122	1.93024	1.68163	0.0221798	0.0340483
0.73	-0.151641	-0.0649747	-0.137062	1.1154	0.937263	-0.350268	0.75077	0.220015	0.0632008	-0.946599	0.295481	-0.0357565	-0.0276456	0.167428	0.0280015	-0.121377	-1.78254	-0.186767	-0.0730814	-0.0679285	-0.207777	0.163718	0.051837	-0.46389	-0.368092	-0.0465273	2.06362	1.62887	-0.00115532	0.0049211	-0.410445	-0.250885	0.0773294	1.87311	1.69229	0.0221798	0.0340483
0.74	-0.145882	-0.0716644	-0.133312	1.11324	0.932725	-0.350569	0.73378	0.231497	0.0674664	-1.0074	0.337069	-0.0357565	-0.0276456	0.224353	0.0279065	-0.10185	-1.85389	-0.153014	-0.0730814	-0.0679285	-0.219996	0.168635	0.0747323	-0.407554	-0.371664	-0.036655	2.03996	1.6201	-0.00115532	0.0049211	-0.426084	-0.241726	0.0587299	1.82403	1.69904	0.0221798	0.0340483
0.75	-0.142083	-0.0761532	-0.127798	1.11113	0.929368	-0.350941	0.708103	0.239487	0.0740113	-1.04943	0.38153	-0.0357565	-0.0276456	0.285571	0.0308995	-0.0778902	-1.91301	-0.119874	-0.0730814	-0.0679285	-0.228712	0.171292	0.0973754	-0.357299	-0.369571	-0.0325159	2.02638	1.61647	-0.00115532	0.0049211	-0.444493	-0.236188	0.0423888	1.7858	1.70046	0.0221798	0.0340483
0.76	-0.140806	-0.0777342	-0.12093	1.10919	0.92735	-0.351274	0.675116	0.243097	0.0826434	-1.07321	0.425183	-0.0357565	-0.0276456	0.350854	0.0352293	-0.0535053	-1.95846	-0.0881901	-0.0730814	-0.0679285	-0.232908	0.170769	0.119676	-0.314575	-0.361865	-0.0345241	2.0247	1.61811	-0.00115532	0.0049211	-0.466707	-0.234687	0.0285563	1.76063	1.69559	0.0221798	0.0340483
0.77	-0.142383	-0.0758829	-0.113373	1.10755	0.926761	-0.351463	0.636173	0.24186	0.0933547	-1.07999	0.464214	-0.0357565	-0.0276456	0.41943	0.0391093	-0.0325461	-1.9891	-0.0583899	-0.0730814	-0.0679285	-0.232105	0.166398	0.14167	-0.28002	-0.349226	-0.0422238	2.03565	1.62482	-0.00115532	0.0049211	-0.493496	-0.237131	0.0169507	1.74979	1.68437	0.0221798	0.0340483
0.78	-0.146822	-0.070355	-0.10589	1.10631	0.927638	-0.35144	0.592401	0.235613	0.106112	-1.07141	0.495006	-0.0357565	-0.0276456	0.489995	0.0411491	-0.0181355	-2.00424	-0.0304199	-0.0730814	-0.0679285	-0.226378	0.157787	0.16337	-0.253421	-0.332901	-0.0542659	2.05876	1.63613	-0.00115532	0.0049211	-0.525278	-0.242907	0.00678616	1.75337	1.66785	0.0221798	0.0340483
0.79	-0.153836	-0.0611727	-0.0991498	1.10558	0.92997	-0.351181	0.544641	0.224385	0.120613	-1.04926	0.514365	-0.0357565	-0.0276456	0.560851	0.0406685	-0.012228	-2.00368	-0.00382466	-0.0730814	-0.0679285	-0.216239	0.144837	0.184646	-0.233867	-0.314534	-0.0685976	2.09245	1.65123	-0.00115532	0.0049211	-0.562083	-0.250975	-0.0030729	1.7703	1.64804	0.0221798	0.0340483
0.8	-0.162946	-0.0485894	-0.0935889	1.1054	0.933686	-0.350706	0.493516	0.20832	0.136098	-1.0153	0.519673	-0.0357565	-0.0276456	0.630096	0.0378379	-0.0153744	-1.98767	0.0219937	-0.0730814	-0.0679285	-0.202471	0.127731	0.205187	-0.220047	-0.295913	-0.0827968	2.13436	1.66902	-0.00115532	0.0049211	-0.603565	-0.260043	-0.0138738	1.79853	1.62746	0.0221798	0.0340483
0.81	-0.17359	-0.0330499	-0.0893481	1.10581	0.938659	-0.350066	0.439554	0.187667	0.151306	-0.97124	0.509018	-0.0357565	-0.0276456	0.695829	0.0336346	-0.0267173	-1.95679	0.0473944	-0.0730814	-0.0679285	-0.18596	0.106895	0.224527	-0.210557	-0.278718	-0.0944502	2.18174	1.68816	-0.00115532	0.0049211	-0.649047	-0.268776	-0.0267178	1.83537	1.60847	0.0221798	0.0340483
0.82	-0.185225	-0.0151303	-0.0862824	1.10677	0.944706	-0.349343	0.383352	0.162829	0.164586	-0.918744	0.481295	-0.0357565	-0.0276456	0.756341	0.0296356	-0.0442009	-1.91179	0.0721426	-0.0730814	-0.0679285	-0.167558	0.0829563	0.242128	-0.204135	-0.26433	-0.101479	2.23185	1.70722	-0.00115532	0.0049211	-0.697589	-0.275993	-0.0423564	1.87794	1.59274	0.0221798	0.0340483
0.83	-0.197398	0.00452915	-0.0840433	1.10826	0.951604	-0.348619	0.325687	0.13445	0.174183	-0.859603	0.436331	-0.0357565	-0.0276456	0.810242	0.0276486	-0.0649733	-1.85345	0.095263	-0.0730814	-0.0679285	-0.148013	0.0567119	0.257476	-0.199799	-0.253728	-0.102357	2.28223	1.72485	-0.00115532	0.0049211	-0.748056	-0.280822	-0.061087	1.9235	1.58105	0.0221798	0.0340483
0.84	-0.209736	0.0251487	-0.082193	1.11021	0.959093	-0.347963	0.267572	0.10348	0.178604	-0.795904	0.374991	-0.0357565	-0.0276456	0.856515	0.0292559	-0.0859173	-1.78249	0.115202	-0.0730814	-0.0679285	-0.127949	0.0290575	0.270163	-0.196886	-0.247468	-0.0962137	2.33089	1.73981	-0.00115532	0.0049211	-0.799183	-0.282788	-0.0827534	1.9697	1.57336	0.0221798	0.0340483
0.85	-0.221925	0.0458377	-0.0803078	1.11257	0.966875	-0.347429	0.210206	0.0712424	0.17701	-0.73019	0.29925	-0.0357565	-0.0276456	0.894485	0.0353499	-0.104197	-1.69959	0.130225	-0.0730814	-0.0679285	-0.107901	0.000979803	0.279963	-0.195031	-0.245727	-0.082839	2.37635	1.75099	-0.00115532	0.0049211	-0.849621	-0.281837	-0.10682	2.01476	1.56904	0.0221798	0.0340483
0.86	-0.233672	0.0656174	-0.0780723	1.11525	0.974669	-0.347035	0.154863	0.0394299	0.169518	-0.665508	0.212211	-0.0357565	-0.0276456	0.923743	0.0458345	-0.117702	-1.60537	0.138852	-0.0730814	-0.0679285	-0.0883743	-0.0264454	0.286872	-0.194121	-0.248369	-0.0626416	2.41759	1.75745	-0.00115532	0.0049211	-0.897982	-0.278315	-0.132478	2.05749	1.56717	0.0221798	0.0340483
0.87	-0.244674	0.0834558	-0.0753467	1.11812	0.98224	-0.346761	0.102739	0.0100206	0.157365	-0.605291	0.118021	-0.0357565	-0.0276456	0.944068	0.0595905	-0.125294	-1.50055	0.140175	-0.0730814	-0.0679285	-0.0698773	-0.0520743	0.291132	-0.194249	-0.255015	-0.0365873	2.45397	1.75857	-0.00115532	0.0049211	-0.942855	-0.27289	-0.158755	2.09722	1.5668	0.0221798	0.0340483
0.88	-0.254607	0.0983348	-0.0721951	1.12104	0.989396	-0.346538	0.0548086	-0.0149008	0.142845	-0.553076	0.0216479	-0.0357565	-0.0276456	0.955385	0.0747149	-0.126825	-1.38598	0.133997	-0.0730814	-0.0679285	-0.0529306	-0.0747565	0.293202	-0.195661	-0.265098	-0.00612812	2.48511	1.75419	-0.00115532	0.0049211	-0.982849	-0.266451	-0.184621	2.13366	1.56712	0.0221798	0.0340483
0.89	-0.263129	0.109359	-0.0688642	1.12391	0.995975	-0.346268	0.0117332	-0.0333914	0.129005	-0.512153	-0.0715021	-0.0357565	-0.0276456	0.957745	0.0889466	-0.122962	-1.26279	0.120822	-0.0730814	-0.0679285	-0.0380515	-0.093443	0.293692	-0.198714	-0.277904	0.0268913	2.51077	1.74481	-0.00115532	0.0049211	-1.01665	-0.259983	-0.209079	2.16681	1.56753	0.0221798	0.0340483
0.9	-0.269923	0.11588	-0.0657117	1.12664	1.00184	-0.345837	-0.0261379	-0.0439261	0.119089	-0.485267	-0.156112	-0.0357565	-0.0276456	0.951345	0.100151	-0.114903	-1.13245	0.101723	-0.0730814	-0.0679285	-0.0257191	-0.107325	0.293253	-0.203807	-0.292605	0.060376	2.53078	1.7317	-0.00115532	0.0049211	-1.04308	-0.254435	-0.231256	2.19676	1.56775	0.0221798	0.0340483
0.91	-0.274728	0.117512	-0.0631166	1.12919	1.00689	-0.345139	-0.0586635	-0.0456732	0.11584	-0.474444	-0.22759	-0.0357565	-0.0276456	0.936565	0.106759	-0.104058	-0.996833	0.0781189	-0.0730814	-0.0679285	-0.0163169	-0.116005	0.292428	-0.211314	-0.308282	0.0921817	2.545	1.71674	-0.00115532	0.0049211	-1.06125	-0.250604	-0.250474	2.22363	1.56771	0.0221798	0.0340483
